<mxfile host="app.diagrams.net" modified="2021-03-15T12:16:24.708Z" agent="5.0 (X11; Linux x86_64) AppleWebKit/537.36 (KHTML, like Gecko) Chrome/87.0.4280.88 Safari/537.36" etag="eQl1JfXpeAP0YLr1yjLK" version="14.4.8" type="github" pages="2">
  <diagram id="bwOtI4I19vBw5SgTE4Ug" name="ia">
    <mxGraphModel dx="981" dy="556" grid="1" gridSize="10" guides="1" tooltips="1" connect="1" arrows="1" fold="1" page="1" pageScale="1" pageWidth="827" pageHeight="1169" math="0" shadow="0">
      <root>
        <mxCell id="0" />
        <mxCell id="1" parent="0" />
        <mxCell id="G-_2B5YVL-3pxQfz3H90-1" value="" style="rounded=0;whiteSpace=wrap;html=1;strokeColor=none;" vertex="1" parent="1">
          <mxGeometry x="160" y="20" width="510" height="340" as="geometry" />
        </mxCell>
        <mxCell id="G-_2B5YVL-3pxQfz3H90-2" value="" style="ellipse;whiteSpace=wrap;html=1;opacity=40;strokeColor=#67AB9F;fillColor=#9AC7BF;" vertex="1" parent="1">
          <mxGeometry x="184" y="50" width="460" height="280" as="geometry" />
        </mxCell>
        <mxCell id="G-_2B5YVL-3pxQfz3H90-3" value="" style="ellipse;whiteSpace=wrap;html=1;opacity=40;strokeColor=#67AB9F;fillColor=#9AC7BF;" vertex="1" parent="1">
          <mxGeometry x="194" y="80" width="370" height="220" as="geometry" />
        </mxCell>
        <mxCell id="G-_2B5YVL-3pxQfz3H90-4" value="" style="ellipse;whiteSpace=wrap;html=1;opacity=40;strokeColor=#67AB9F;fillColor=#9AC7BF;" vertex="1" parent="1">
          <mxGeometry x="204" y="110" width="250" height="160" as="geometry" />
        </mxCell>
        <mxCell id="G-_2B5YVL-3pxQfz3H90-5" value="" style="ellipse;whiteSpace=wrap;html=1;opacity=40;strokeColor=#67AB9F;fillColor=#9AC7BF;" vertex="1" parent="1">
          <mxGeometry x="214" y="140" width="120" height="100" as="geometry" />
        </mxCell>
        <mxCell id="G-_2B5YVL-3pxQfz3H90-6" value="IA" style="text;html=1;strokeColor=none;fillColor=none;align=center;verticalAlign=middle;whiteSpace=wrap;rounded=0;fontFamily=Helvetica;fontStyle=0;fontColor=#333333;" vertex="1" parent="1">
          <mxGeometry x="584" y="180" width="40" height="20" as="geometry" />
        </mxCell>
        <mxCell id="G-_2B5YVL-3pxQfz3H90-7" value="Aprendizado de Máquina" style="text;html=1;strokeColor=none;fillColor=none;align=center;verticalAlign=middle;whiteSpace=wrap;rounded=0;fontFamily=Helvetica;fontStyle=0;fontColor=#333333;" vertex="1" parent="1">
          <mxGeometry x="473" y="180" width="70" height="20" as="geometry" />
        </mxCell>
        <mxCell id="G-_2B5YVL-3pxQfz3H90-8" value="Aprendizado de Representação" style="text;html=1;strokeColor=none;fillColor=none;align=center;verticalAlign=middle;whiteSpace=wrap;rounded=0;fontFamily=Helvetica;fontStyle=0;fontColor=#333333;" vertex="1" parent="1">
          <mxGeometry x="344" y="180" width="95" height="20" as="geometry" />
        </mxCell>
        <mxCell id="G-_2B5YVL-3pxQfz3H90-9" value="Aprendizado Profundo" style="text;html=1;strokeColor=none;fillColor=none;align=center;verticalAlign=middle;whiteSpace=wrap;rounded=0;fontFamily=Helvetica;fontStyle=0;fontColor=#333333;" vertex="1" parent="1">
          <mxGeometry x="226.5" y="180" width="95" height="20" as="geometry" />
        </mxCell>
      </root>
    </mxGraphModel>
  </diagram>
  <diagram id="vgTqw1Z3yA5EQJg1VX2K" name="Page-2">
    <mxGraphModel dx="981" dy="514" grid="1" gridSize="10" guides="1" tooltips="1" connect="1" arrows="1" fold="1" page="1" pageScale="1" pageWidth="827" pageHeight="1169" math="0" shadow="0">
      <root>
        <mxCell id="ax5akQLzSHZuLAkx-ILv-0" />
        <mxCell id="ax5akQLzSHZuLAkx-ILv-1" parent="ax5akQLzSHZuLAkx-ILv-0" />
        <mxCell id="Z48o-Frdya4zn5-rLc4U-0" value="" style="ellipse;whiteSpace=wrap;html=1;" vertex="1" parent="ax5akQLzSHZuLAkx-ILv-1">
          <mxGeometry x="350" y="340" width="120" height="80" as="geometry" />
        </mxCell>
        <mxCell id="Z48o-Frdya4zn5-rLc4U-1" value="" style="ellipse;whiteSpace=wrap;html=1;" vertex="1" parent="ax5akQLzSHZuLAkx-ILv-1">
          <mxGeometry x="380" y="340" width="120" height="80" as="geometry" />
        </mxCell>
        <mxCell id="Z48o-Frdya4zn5-rLc4U-2" value="" style="ellipse;whiteSpace=wrap;html=1;" vertex="1" parent="ax5akQLzSHZuLAkx-ILv-1">
          <mxGeometry x="410" y="340" width="120" height="80" as="geometry" />
        </mxCell>
        <mxCell id="Z48o-Frdya4zn5-rLc4U-3" value="" style="ellipse;whiteSpace=wrap;html=1;" vertex="1" parent="ax5akQLzSHZuLAkx-ILv-1">
          <mxGeometry x="120" y="80" width="240" height="200" as="geometry" />
        </mxCell>
        <mxCell id="TVbIHLfrSst5eCbxykMx-0" value="Text" style="text;html=1;strokeColor=none;fillColor=none;align=center;verticalAlign=middle;whiteSpace=wrap;rounded=0;fontFamily=Helvetica;" vertex="1" parent="ax5akQLzSHZuLAkx-ILv-1">
          <mxGeometry x="410" y="150" width="40" height="20" as="geometry" />
        </mxCell>
      </root>
    </mxGraphModel>
  </diagram>
</mxfile>
